# xmcd
#
# Track frame offsets:
#	150
#	9678
#	20325
#	33318
#	42690
#	52525
#	62495
#	72093
#	85108
#	98005
#	109165
#	117653
#	130299
#	138796
#	149494
#	161494
#	171930
#	180353
#	192225
#	203153
#
# Disc length: 2882
#
# Revision: 2
# Processed by: cddbd v1.5.1PL0 Copyright (c) Steve Scherf et al.
# Submitted via: ExactAudioCopy v0.95a3
# Normalized: r0:TDELIM( - ),TSWAP
#
DISCID=0f0b4014
DTITLE=Various Artist - The Core Of Rockabilly
DYEAR=1999
DGENRE=country
TTITLE0=Roy Orbison - Rockhouse
TTITLE1=Sleepy La Beef - Tore Up
TTITLE2=Warren Smith - Rock 'n' Roll Ruby
TTITLE3=Bill Riley and His Little Green Men - Flyin' Saucer Rock 'n' Roll
TTITLE4=Sonny Burgess - Red Headed Woman
TTITLE5=Carl Perkins - Everybody's Trying To Be My Baby
TTITLE6=Roy Orbison - You're My Baby
TTITLE7=Jerry Lee Lewis - Whole Lotta Shakin' Goin' On
TTITLE8=Malcolm Yelvington - Drinkin' Wine Spo-Dee-O-Dee
TTITLE9=Johnny Cash and The Tennessee Two - Big River
TTITLE10=Charlie Rich - Rebound
TTITLE11=Carl Perkins - Put Your Cat Clothes On
TTITLE12=Jerry Lee Lewis - Great Balls Of Fire
TTITLE13=Dean Beard - Rock Around The Town
TTITLE14=Ray Harris - Greenback Dollar
TTITLE15=Ed Bruce - Rock Boppin' Baby
TTITLE16=Johnny Cash and The Tennessee Two - Guess Things Happen That Way
TTITLE17=Carl Perkins - Perkins Wiggle
TTITLE18=Jerry Lee Lewis - Mean Woman Blues
TTITLE19=Rufus 'Hound Dog' Thomas Jr - Bear Cat (Answer to Hound Dog)
EXTD=
EXTT0=
EXTT1=
EXTT2=
EXTT3=
EXTT4=
EXTT5=
EXTT6=
EXTT7=
EXTT8=
EXTT9=
EXTT10=
EXTT11=
EXTT12=
EXTT13=
EXTT14=
EXTT15=
EXTT16=
EXTT17=
EXTT18=
EXTT19=
PLAYORDER=
